<mxfile host="app.diagrams.net" modified="2020-04-28T05:01:00.279Z" agent="5.0 (Windows NT 10.0; Win64; x64) AppleWebKit/537.36 (KHTML, like Gecko) Chrome/81.0.4044.122 Safari/537.36" etag="l2hPuGEouV6Bb7IRaSWe" version="12.9.13" type="github">
  <diagram id="wdU0Jbt-SyzVik3_71Qo" name="Page-1">
    <mxGraphModel dx="2702" dy="944" grid="1" gridSize="10" guides="1" tooltips="1" connect="1" arrows="1" fold="1" page="1" pageScale="1" pageWidth="827" pageHeight="1169" math="0" shadow="0">
      <root>
        <mxCell id="0" />
        <mxCell id="1" parent="0" />
        <mxCell id="kiWhcbLOmGJkH6H4itFC-1" value="" style="rounded=0;whiteSpace=wrap;html=1;" vertex="1" parent="1">
          <mxGeometry x="-360" y="60" width="120" height="60" as="geometry" />
        </mxCell>
        <mxCell id="kiWhcbLOmGJkH6H4itFC-2" value="" style="rounded=0;whiteSpace=wrap;html=1;" vertex="1" parent="1">
          <mxGeometry x="-200" y="60" width="120" height="60" as="geometry" />
        </mxCell>
        <mxCell id="kiWhcbLOmGJkH6H4itFC-3" value="" style="rounded=0;whiteSpace=wrap;html=1;" vertex="1" parent="1">
          <mxGeometry x="-40" y="60" width="120" height="60" as="geometry" />
        </mxCell>
        <mxCell id="kiWhcbLOmGJkH6H4itFC-4" value="" style="rounded=0;whiteSpace=wrap;html=1;" vertex="1" parent="1">
          <mxGeometry x="120" y="60" width="120" height="60" as="geometry" />
        </mxCell>
        <mxCell id="kiWhcbLOmGJkH6H4itFC-5" value="" style="rounded=0;whiteSpace=wrap;html=1;" vertex="1" parent="1">
          <mxGeometry x="280" y="60" width="120" height="60" as="geometry" />
        </mxCell>
        <mxCell id="kiWhcbLOmGJkH6H4itFC-6" value="" style="rounded=0;whiteSpace=wrap;html=1;" vertex="1" parent="1">
          <mxGeometry x="440" y="60" width="120" height="60" as="geometry" />
        </mxCell>
        <mxCell id="kiWhcbLOmGJkH6H4itFC-7" value="" style="rounded=0;whiteSpace=wrap;html=1;" vertex="1" parent="1">
          <mxGeometry x="600" y="60" width="120" height="60" as="geometry" />
        </mxCell>
        <mxCell id="kiWhcbLOmGJkH6H4itFC-24" value="" style="edgeStyle=orthogonalEdgeStyle;rounded=0;orthogonalLoop=1;jettySize=auto;html=1;" edge="1" parent="1" source="kiWhcbLOmGJkH6H4itFC-8" target="kiWhcbLOmGJkH6H4itFC-9">
          <mxGeometry relative="1" as="geometry" />
        </mxCell>
        <mxCell id="kiWhcbLOmGJkH6H4itFC-8" value="" style="rounded=0;whiteSpace=wrap;html=1;" vertex="1" parent="1">
          <mxGeometry x="760" y="60" width="120" height="60" as="geometry" />
        </mxCell>
        <mxCell id="kiWhcbLOmGJkH6H4itFC-23" value="" style="edgeStyle=orthogonalEdgeStyle;rounded=0;orthogonalLoop=1;jettySize=auto;html=1;" edge="1" parent="1" source="kiWhcbLOmGJkH6H4itFC-9" target="kiWhcbLOmGJkH6H4itFC-10">
          <mxGeometry relative="1" as="geometry" />
        </mxCell>
        <mxCell id="kiWhcbLOmGJkH6H4itFC-25" value="" style="edgeStyle=orthogonalEdgeStyle;rounded=0;orthogonalLoop=1;jettySize=auto;html=1;" edge="1" parent="1" source="kiWhcbLOmGJkH6H4itFC-9" target="kiWhcbLOmGJkH6H4itFC-10">
          <mxGeometry relative="1" as="geometry" />
        </mxCell>
        <mxCell id="kiWhcbLOmGJkH6H4itFC-9" value="" style="rounded=0;whiteSpace=wrap;html=1;" vertex="1" parent="1">
          <mxGeometry x="920" y="60" width="120" height="60" as="geometry" />
        </mxCell>
        <mxCell id="kiWhcbLOmGJkH6H4itFC-10" value="" style="rounded=0;whiteSpace=wrap;html=1;" vertex="1" parent="1">
          <mxGeometry x="1080" y="60" width="120" height="60" as="geometry" />
        </mxCell>
        <mxCell id="kiWhcbLOmGJkH6H4itFC-11" value="" style="endArrow=classic;html=1;entryX=0;entryY=0.5;entryDx=0;entryDy=0;exitX=1;exitY=0.5;exitDx=0;exitDy=0;" edge="1" parent="1" source="kiWhcbLOmGJkH6H4itFC-1" target="kiWhcbLOmGJkH6H4itFC-2">
          <mxGeometry width="50" height="50" relative="1" as="geometry">
            <mxPoint x="-610" y="89.5" as="sourcePoint" />
            <mxPoint x="-530" y="89.5" as="targetPoint" />
          </mxGeometry>
        </mxCell>
        <mxCell id="kiWhcbLOmGJkH6H4itFC-15" value="" style="endArrow=classic;html=1;entryX=0;entryY=0.5;entryDx=0;entryDy=0;" edge="1" parent="1">
          <mxGeometry width="50" height="50" relative="1" as="geometry">
            <mxPoint x="-80" y="90" as="sourcePoint" />
            <mxPoint x="-40" y="89.5" as="targetPoint" />
          </mxGeometry>
        </mxCell>
        <mxCell id="kiWhcbLOmGJkH6H4itFC-16" value="" style="endArrow=classic;html=1;entryX=0;entryY=0.5;entryDx=0;entryDy=0;" edge="1" parent="1">
          <mxGeometry width="50" height="50" relative="1" as="geometry">
            <mxPoint x="80" y="90" as="sourcePoint" />
            <mxPoint x="120" y="89.5" as="targetPoint" />
          </mxGeometry>
        </mxCell>
        <mxCell id="kiWhcbLOmGJkH6H4itFC-17" value="" style="endArrow=classic;html=1;entryX=0;entryY=0.5;entryDx=0;entryDy=0;" edge="1" parent="1">
          <mxGeometry width="50" height="50" relative="1" as="geometry">
            <mxPoint x="240" y="90" as="sourcePoint" />
            <mxPoint x="280" y="89.5" as="targetPoint" />
          </mxGeometry>
        </mxCell>
        <mxCell id="kiWhcbLOmGJkH6H4itFC-18" value="" style="endArrow=classic;html=1;entryX=0;entryY=0.5;entryDx=0;entryDy=0;" edge="1" parent="1">
          <mxGeometry width="50" height="50" relative="1" as="geometry">
            <mxPoint x="400" y="90" as="sourcePoint" />
            <mxPoint x="440" y="89.5" as="targetPoint" />
          </mxGeometry>
        </mxCell>
        <mxCell id="kiWhcbLOmGJkH6H4itFC-19" value="" style="endArrow=classic;html=1;entryX=0;entryY=0.5;entryDx=0;entryDy=0;" edge="1" parent="1">
          <mxGeometry width="50" height="50" relative="1" as="geometry">
            <mxPoint x="560" y="90" as="sourcePoint" />
            <mxPoint x="600" y="89.5" as="targetPoint" />
          </mxGeometry>
        </mxCell>
        <mxCell id="kiWhcbLOmGJkH6H4itFC-20" value="" style="endArrow=classic;html=1;entryX=0;entryY=0.5;entryDx=0;entryDy=0;exitX=1;exitY=0.5;exitDx=0;exitDy=0;" edge="1" parent="1" source="kiWhcbLOmGJkH6H4itFC-7">
          <mxGeometry width="50" height="50" relative="1" as="geometry">
            <mxPoint x="730" y="90" as="sourcePoint" />
            <mxPoint x="760" y="89.5" as="targetPoint" />
          </mxGeometry>
        </mxCell>
        <mxCell id="kiWhcbLOmGJkH6H4itFC-21" value="" style="endArrow=classic;html=1;entryX=0;entryY=0.5;entryDx=0;entryDy=0;" edge="1" parent="1">
          <mxGeometry width="50" height="50" relative="1" as="geometry">
            <mxPoint x="880" y="90" as="sourcePoint" />
            <mxPoint x="920" y="89.5" as="targetPoint" />
          </mxGeometry>
        </mxCell>
        <mxCell id="kiWhcbLOmGJkH6H4itFC-22" value="" style="endArrow=classic;html=1;entryX=0;entryY=0.5;entryDx=0;entryDy=0;" edge="1" parent="1">
          <mxGeometry width="50" height="50" relative="1" as="geometry">
            <mxPoint x="1050" y="90" as="sourcePoint" />
            <mxPoint x="1080" y="89.5" as="targetPoint" />
          </mxGeometry>
        </mxCell>
      </root>
    </mxGraphModel>
  </diagram>
</mxfile>
